<svg xmlns="http://www.w3.org/2000/svg" width="0" height="0">

	<svg id="icon-play" viewBox="0 0 21 21">
		<style type="text/css">
			.st0{fill:#333;}
		</style>
		<path class="st0" d="M16.6,9.7L5.7,2.4C5,1.8,4,2.4,4,3.2v14.6c0,0.8,1,1.4,1.7,0.8l10.8-7.3C17.1,10.9,17.1,10.1,16.6,9.7"/>
	</svg>

	<svg id="icon-pause" viewBox="0 0 21 21">
		<style type="text/css">
			.st0{fill:#333;}
		</style>
		<path class="st0" d="M7.3,2.1H4.1C3.5,2.1,3,2.5,3,3.2V18C3,18.6,3.5,19,4.1,19h3.2c0.6,0,1.1-0.4,1.1-1.1V3.2C8.4,2.5,7.9,2.1,7.3,2.1 M13.7,2.1c-0.6,0-1.1,0.4-1.1,1.1V18c0,0.6,0.4,1.1,1.1,1.1h3.2c0.6,0,1.1-0.4,1.1-1.1V3.2c0-0.6-0.4-1.1-1.1-1.1H13.7z"/>
	</svg>

	<svg id="icon-forward" viewBox="0 0 21 21">
		<style type="text/css">
			.st0{fill:#333;}
		</style>
		<path class="st0" d="M9.2,8.6L1,2.1V19l8.2-6.5V19l10.6-8.4L9.2,2.1V8.6z"/>
	</svg>

	<svg id="icon-rewind" viewBox="0 0 21 21">
		<style type="text/css">
			.st0{fill:#333;}
		</style>
		<path class="st0" d="M11.6,12.5l8.2,6.5V2.1l-8.2,6.5V2.1L1,10.6L11.6,19V12.5z"/>
	</svg>

	<svg id="icon-restart" viewBox="0 0 21 21">
		<style type="text/css">
			.st0{fill:#333;}
		</style>
		<path class="st0" d="M11.3,2l0.8,7.3l2.4-2.4c2.2,2.2,2.2,5.8,0,8c-1,1.1-2.5,1.7-4,1.7s-3-0.6-4-1.7c-2.2-2.2-2.2-5.8,0-8 c0.7-0.7,1.6-1.3,2.6-1.5L8.5,3.3c-1.4,0.3-2.6,1-3.7,2.1c-3.1,3.1-3.1,8.1,0,11.3c1.5,1.5,3.6,2.3,5.6,2.3c2.2,0,4.1-0.8,5.6-2.3 c3.1-3.1,3.1-8.1,0-11.3l2.5-2.5L11.3,2z"/>
	</svg>

	<svg id="icon-volume" viewBox="0 0 21 21">
		<style type="text/css">
			.st0{fill:#333;}
		</style>
		<path class="st0" d="M17.5,4.5c-0.4-0.4-1.1-0.4-1.5,0c-0.4,0.4-0.4,1.1,0,1.5c1.3,1.3,1.9,2.9,1.9,4.5S17.3,13.8,16,15c-0.4,0.4-0.4,1.1,0,1.5 c0.2,0.2,0.5,0.3,0.7,0.3c0.3,0,0.5-0.1,0.7-0.3c1.6-1.6,2.5-3.7,2.5-6S19.1,6.1,17.5,4.5"/>
		<path class="st0" d="M12.9,6.6c-0.4,0.4-0.4,1,0,1.4c0,0,0,0,0,0c0.8,0.8,1.1,1.5,1.1,2.5c0,1-0.4,2-1.1,2.6c-0.4,0.4-0.4,1,0,1.4c0,0,0,0,0,0 c0.2,0.2,0.7,0.3,1.1,0.2c0.1,0,0.2-0.1,0.3-0.2c1.2-1.1,1.6-2.8,1.6-4c0-0.2,0-0.4,0-0.5c-0.1-1-0.3-2.1-1.6-3.4 C13.9,6.2,13.3,6.2,12.9,6.6C12.9,6.6,12.9,6.6,12.9,6.6 M5,7.3H1.7C1.3,7.3,1,7.7,1,8.1v4.8c0,0.5,0.3,0.8,0.8,0.8H5l4.3,4.1 c0.5,0.3,1.2,0,1.2-0.6V3.9c0-0.6-0.7-1-1.2-0.6L5,7.3z"/>
	</svg>

	<svg id="icon-volume-mute" viewBox="0 0 21 21">
		<style type="text/css">
			.st0{fill:#333;}
		</style>
		<path class="st0" d="m12.4 12.5 2.1-2.1 2.1 2.1 1.4-1.4L15.9 9 18 6.9l-1.4-1.4-2.1 2.1-2.1-2.1L11 6.9 13.1 9 11 11.1zM3.786 6.008H.714C.286 6.008 0 6.31 0 6.76v4.512c0 .452.286.752.714.752h3.072l4.071 3.858c.5.3 1.143 0 1.143-.602V2.752c0-.601-.643-.977-1.143-.601z"/>
	</svg>

	<svg id="icon-cc" viewBox="0 0 21 21">
		<style type="text/css">
			.st0{fill:#333;fill-rule:evenodd;clip-rule:evenodd;}
		</style>
		<path class="st0" d="M2,2C1.4,2,1,2.4,1,3v11.5c0,0.6,0.4,1,1,1h4.8l2.8,2.8c0.2,0.2,0.4,0.3,0.7,0.3s0.5-0.1,0.7-0.3l2.8-2.8h4.8 c0.6,0,1-0.4,1-1V3c0-0.6-0.4-1-1-1H2z M6.8,12.6c2.1,0,3.1-1.4,3.4-2.5L8.8,9.7c-0.2,0.7-0.8,1.5-2.1,1.5c-1.2,0-2.3-0.9-2.3-2.4 c0-1.7,1.2-2.5,2.3-2.5c1.3,0,1.9,0.8,2,1.5l1.4-0.4C9.8,6.1,8.8,4.9,6.7,4.9C4.8,4.9,3,6.4,3,8.7S4.7,12.6,6.8,12.6 M14.7,12.6 c2.1,0,3.1-1.4,3.4-2.5l-1.3-0.4c-0.2,0.7-0.8,1.5-2.1,1.5c-1.2,0-2.3-0.9-2.3-2.4c0-1.7,1.2-2.5,2.3-2.5c1.3,0,1.9,0.8,2,1.5 L18,7.3c-0.3-1.2-1.3-2.5-3.4-2.5c-2,0-3.8,1.5-3.8,3.9S12.6,12.6,14.7,12.6"/>
	</svg>

	<svg id="icon-cog" viewBox="0 0 21 21">
		<style type="text/css">
			.st0{fill:#333;}
		</style>
		<path class="st0" d="M18,9.2c-1.1-0.3-1.8-1.4-1.5-2.6c0.1-0.2,0.1-0.4,0.2-0.6C17.1,5.5,17,5,16.6,4.7l-0.3-0.3C16,4,15.5,3.9,14.9,4.3 c-1,0.6-2.3,0.3-2.9-0.7c-0.1-0.2-0.2-0.4-0.2-0.6c-0.2-0.6-0.6-0.9-1.1-0.9h-0.5C9.8,2.1,9.4,2.3,9.2,3C8.9,4.1,7.8,4.8,6.7,4.5 C6.5,4.5,6.3,4.4,6.1,4.3C5.5,3.9,5,4,4.7,4.4L4.4,4.7C4,5,3.9,5.5,4.3,6.1c0.6,1,0.3,2.3-0.7,2.9C3.4,9.1,3.2,9.2,3,9.2 c-0.6,0.2-0.9,0.6-0.9,1.1v0.5c0,0.5,0.3,0.9,0.9,1.1c1.1,0.3,1.8,1.4,1.5,2.6c-0.1,0.2-0.1,0.4-0.2,0.6C3.9,15.5,4,16,4.4,16.3 l0.3,0.3C5,17,5.5,17.1,6.1,16.7c1-0.6,2.3-0.3,2.9,0.7c0.1,0.2,0.2,0.4,0.2,0.6c0.2,0.6,0.6,0.9,1.1,0.9h0.5c0.5,0,0.9-0.3,1.1-0.9 c0.3-1.1,1.4-1.8,2.6-1.5c0.2,0.1,0.4,0.1,0.6,0.2c0.6,0.3,1.1,0.2,1.4-0.1l0.3-0.3c0.3-0.3,0.4-0.8,0.1-1.4c-0.6-1-0.3-2.3,0.7-2.9 c0.2-0.1,0.4-0.2,0.6-0.2c0.6-0.2,0.9-0.6,0.9-1.1v-0.5C18.9,9.8,18.7,9.4,18,9.2 M10.5,13.7c-1.7,0-3.2-1.4-3.2-3.2 s1.4-3.2,3.2-3.2s3.2,1.4,3.2,3.2S12.2,13.7,10.5,13.7"/>
	</svg>

	<svg id="icon-pip" viewBox="0 0 21 21">
		<style type="text/css">
			.st0{fill:#333;}
		</style>
		<path class="st0" d="M15,4.6l-6.5,6.5l1.5,1.5L16.4,6l2.4,2.4V2.2h-6.2L15,4.6z"/>
		<path class="st0" d="M14.8,16.9H4.1V6.2h5.3V4.1H3.1C2.5,4.1,2,4.5,2,5.1v12.8C2,18.5,2.5,19,3.1,19h12.8c0.6,0,1.1-0.5,1.1-1.1v-6.4h-2.1V16.9z"/>
	</svg>

	<svg id="icon-expand" viewBox="0 0 21 21">
		<style type="text/css">
			.st0{fill:#333;}
		</style>
		<path class="st0" d="M11.8,4.1h3.6l-4,4l1.4,1.4l4-4v3.6h2v-7h-7V4.1z M8,11.6l-4,4V12H2v7h7v-2H5.4l4-4L8,11.6z"/>
	</svg>

	<svg id="icon-collapse" viewBox="0 0 21 21">
		<style type="text/css">
			.st0{fill:#333;}
		</style>
		<path class="st0" d="M2,14.1h3.6l-4,4L3,19.5l4-4v3.6h2v-7H2V14.1z M17.9,1.7l-4,4V2.1h-2v7h7v-2h-3.6l4-4L17.9,1.7z"/>
	</svg>


	<svg id="icon-radio" viewBox="0 0 21 21">
		<style type="text/css">
			.st0{fill:none;stroke:#333;stroke-width:2.5;opacity:.6;}
		</style>
		<circle class="st0" cx="10.5" cy="10.5" r="6.5"/>
	</svg>

	<svg id="icon-radio-checked" viewBox="0 0 21 21">
		<style type="text/css">
			.st0{fill:none;stroke:#333;stroke-width:2.5;opacity:.6;}
			.st1{fill:#333;}
		</style>
		<circle class="st0" cx="10.5" cy="10.5" r="6.5"/>
		<circle class="st1" cx="10.5" cy="10.5" r="2.5"/>
	</svg>


	<svg id="icon-airplay" viewBox="0 0 21 21">
		<style type="text/css">
			.st0{fill:#333;}
		</style>
		<path class="st0" d="M18.6,1H2.2C1.5,1,1,1.5,1,2.2v11.7c0,0.6,0.5,1.2,1.2,1.2h3.5v-2.3H3.3V3.3h14.1v9.4h-2.3v2.3h3.5c0.6,0,1.2-0.5,1.2-1.2 V2.2C19.8,1.5,19.2,1,18.6,1"/>
		<path class="st0" d="M4.5,20h11.7l-5.9-7L4.5,20z"/>
	</svg>

	<svg id="icon-download" viewBox="0 0 21 21">
		<style type="text/css">
			.st0{fill:#333;}
		</style>
		<path class="st0" d="M10.5,15c0.3,0,0.5-0.1,0.7-0.3L16.9,9l-1.4-1.4l-4,4V3h-2v8.6l-4-4L4.1,9l5.7,5.7C10,14.9,10.2,15,10.5,15 M3.5,17h14v2 h-14L3.5,17z"/>
	</svg>

</svg>