<svg xmlns="http://www.w3.org/2000/svg" width="0" height="0">

	<svg id="icon-play" viewBox="0 0 21 21">
		<style type="text/css">
			.st0{fill:#333;}
		</style>
		<path class="st0" d="M16.6,9.7L5.7,2.4C5,1.8,4,2.4,4,3.2v14.6c0,0.8,1,1.4,1.7,0.8l10.8-7.3C17.1,10.9,17.1,10.1,16.6,9.7"/>
	</svg>

	<svg id="icon-pause" viewBox="0 0 21 21">
		<style type="text/css">
			.st0{fill:#333;}
		</style>
		<path class="st0" d="M7.3,2.1H4.1C3.5,2.1,3,2.5,3,3.2V18C3,18.6,3.5,19,4.1,19h3.2c0.6,0,1.1-0.4,1.1-1.1V3.2C8.4,2.5,7.9,2.1,7.3,2.1 M13.7,2.1c-0.6,0-1.1,0.4-1.1,1.1V18c0,0.6,0.4,1.1,1.1,1.1h3.2c0.6,0,1.1-0.4,1.1-1.1V3.2c0-0.6-0.4-1.1-1.1-1.1H13.7z"/>
	</svg>

	<svg id="icon-forward" viewBox="0 0 21 21">
		<style type="text/css">
			.st0{fill:#333;}
		</style>
		<path class="st0" d="M19.8,8.1h-7l2.6-2.5c-1.3-1.3-3.1-2.1-5-2.1s-3.7,0.7-5,2.1c-1.3,1.3-2.1,3.1-2.1,5s0.7,3.7,2.1,5c1.3,1.3,3.1,2.1,5,2.1
			s3.7-0.7,5-2.1c0.1-0.1,0.2-0.2,0.3-0.3l1.8,1.5c-1.7,2-4.3,3.2-7.1,3.2C5.2,20,1,15.8,1,10.6s4.2-9.4,9.4-9.4
			c2.6,0,4.9,1.1,6.6,2.8l2.8-2.8V8.1z"/>
	</svg>

	<svg id="icon-rewind" viewBox="0 0 21 21">
		<style type="text/css">
			.st0{fill:#333;}
		</style>
		<path class="st0" d="M1,1.2l2.8,2.8c1.7-1.7,4.1-2.8,6.6-2.8c5.2,0,9.4,4.2,9.4,9.4S15.6,20,10.4,20c-2.8,0-5.4-1.2-7.1-3.2l1.8-1.5
			c0.1,0.1,0.2,0.2,0.3,0.3c1.3,1.3,3.1,2.1,5,2.1s3.7-0.7,5-2.1c1.3-1.3,2.1-3.1,2.1-5s-0.7-3.7-2.1-5c-1.3-1.3-3.1-2.1-5-2.1
			s-3.7,0.7-5,2.1l2.6,2.5H1V1.2z"/>
	</svg>

	<svg id="icon-restart" viewBox="0 0 21 21">
		<style type="text/css">
			.st0{fill:#333;}
		</style>
		<path class="st0" d="M11.3,2l0.8,7.3l2.4-2.4c2.2,2.2,2.2,5.8,0,8c-1,1.1-2.5,1.7-4,1.7s-3-0.6-4-1.7c-2.2-2.2-2.2-5.8,0-8 c0.7-0.7,1.6-1.3,2.6-1.5L8.5,3.3c-1.4,0.3-2.6,1-3.7,2.1c-3.1,3.1-3.1,8.1,0,11.3c1.5,1.5,3.6,2.3,5.6,2.3c2.2,0,4.1-0.8,5.6-2.3 c3.1-3.1,3.1-8.1,0-11.3l2.5-2.5L11.3,2z"/>
	</svg>

	<svg id="icon-volume" viewBox="0 0 21 21">
		<style type="text/css">
			.st0{fill:#333;}
		</style>
		<path class="st0" d="M17.5,4.5c-0.4-0.4-1.1-0.4-1.5,0c-0.4,0.4-0.4,1.1,0,1.5c1.3,1.3,1.9,2.9,1.9,4.5S17.3,13.8,16,15c-0.4,0.4-0.4,1.1,0,1.5 c0.2,0.2,0.5,0.3,0.7,0.3c0.3,0,0.5-0.1,0.7-0.3c1.6-1.6,2.5-3.7,2.5-6S19.1,6.1,17.5,4.5"/>
		<path class="st0" d="M12.9,6.6c-0.4,0.4-0.4,1,0,1.4c0,0,0,0,0,0c0.8,0.8,1.1,1.5,1.1,2.5c0,1-0.4,2-1.1,2.6c-0.4,0.4-0.4,1,0,1.4c0,0,0,0,0,0 c0.2,0.2,0.7,0.3,1.1,0.2c0.1,0,0.2-0.1,0.3-0.2c1.2-1.1,1.6-2.8,1.6-4c0-0.2,0-0.4,0-0.5c-0.1-1-0.3-2.1-1.6-3.4 C13.9,6.2,13.3,6.2,12.9,6.6C12.9,6.6,12.9,6.6,12.9,6.6 M5,7.3H1.7C1.3,7.3,1,7.7,1,8.1v4.8c0,0.5,0.3,0.8,0.8,0.8H5l4.3,4.1 c0.5,0.3,1.2,0,1.2-0.6V3.9c0-0.6-0.7-1-1.2-0.6L5,7.3z"/>
	</svg>

	<svg id="icon-volume-mute" viewBox="0 0 21 21">
		<style type="text/css">
			.st0{fill:#333;}
		</style>
		<path class="st0" d="M13.8,14l2.1-2.1L18,14l1.4-1.4l-2.1-2.1l2.1-2.1L18,7l-2.1,2.1L13.8,7l-1.4,1.4l2.1,2.1l-2.1,2.1L13.8,14z M4.8,7.5H1.7 C1.3,7.5,1,7.8,1,8.3v4.5c0,0.5,0.3,0.8,0.7,0.8h3.1l4.1,3.9c0.5,0.3,1.1,0,1.1-0.6V4.3c0-0.6-0.6-1-1.1-0.6L4.8,7.5z"/>
	</svg>

	<svg id="icon-cc" viewBox="0 0 21 21">
		<style type="text/css">
			.st0{fill:#333;fill-rule:evenodd;clip-rule:evenodd;}
		</style>
		<path class="st0" d="M2,2C1.4,2,1,2.4,1,3v11.5c0,0.6,0.4,1,1,1h4.8l2.8,2.8c0.2,0.2,0.4,0.3,0.7,0.3s0.5-0.1,0.7-0.3l2.8-2.8h4.8 c0.6,0,1-0.4,1-1V3c0-0.6-0.4-1-1-1H2z M6.8,12.6c2.1,0,3.1-1.4,3.4-2.5L8.8,9.7c-0.2,0.7-0.8,1.5-2.1,1.5c-1.2,0-2.3-0.9-2.3-2.4 c0-1.7,1.2-2.5,2.3-2.5c1.3,0,1.9,0.8,2,1.5l1.4-0.4C9.8,6.1,8.8,4.9,6.7,4.9C4.8,4.9,3,6.4,3,8.7S4.7,12.6,6.8,12.6 M14.7,12.6 c2.1,0,3.1-1.4,3.4-2.5l-1.3-0.4c-0.2,0.7-0.8,1.5-2.1,1.5c-1.2,0-2.3-0.9-2.3-2.4c0-1.7,1.2-2.5,2.3-2.5c1.3,0,1.9,0.8,2,1.5 L18,7.3c-0.3-1.2-1.3-2.5-3.4-2.5c-2,0-3.8,1.5-3.8,3.9S12.6,12.6,14.7,12.6"/>
	</svg>

	<svg id="icon-speed" viewBox="0 0 21 21">
		<style type="text/css">
			.st0{fill:#333;fill-rule:evenodd;clip-rule:evenodd;}
		</style>
		<path class="st0" d="M10.5,2.5c4.6,0,8.3,3.7,8.3,8.3c0,3.1-1.7,5.9-4.3,7.3h-8c-2.6-1.4-4.3-4.1-4.3-7.3C2.2,6.2,5.9,2.5,10.5,2.5z M15.2,15.5
	c1.3-1.3,1.9-2.9,1.9-4.7h-1.5v-1h1.4C17,9,16.7,8.3,16.4,7.7h-1.7v-1h1c-0.2-0.2-0.3-0.4-0.5-0.6c-0.8-0.8-1.6-1.3-2.6-1.6v1.1h-1
	V4.2c-0.3-0.1-0.7-0.1-1-0.1s-0.7,0-1,0.1v1.4h-1V4.5c-1,0.3-1.9,0.9-2.6,1.6C5.6,6.3,5.5,6.5,5.3,6.7h1v1H4.6C4.3,8.3,4,9,3.9,9.8
	h1.4v1H3.8c0,1.8,0.7,3.4,1.9,4.7C6,15.7,6.2,15.8,6.3,16h3.1l0.6-8.3h0.9l0.6,8.3h3.1C14.8,15.8,15,15.7,15.2,15.5z"/>
	</svg>

	<svg id="icon-quality" viewBox="0 0 21 21">
		<style type="text/css">
			.st0{fill:#333;fill-rule:evenodd;clip-rule:evenodd;}
		</style>
		<path class="st0" d="M9.5,4.1V3.9c0-0.4-0.4-0.8-0.8-0.8H6.1c-0.4,0-0.8,0.4-0.8,0.8v0.3H2v2.1h3.3v0.3c0,0.4,0.4,0.8,0.8,0.8h2.6
	c0.4,0,0.8-0.4,0.8-0.8V6.2h9.3V4.1H9.5z M6.3,6.2V4.1h2.1v2.1H6.3z M15.7,8.8c0-0.4-0.4-0.8-0.8-0.8h-2.6c-0.4,0-0.8,0.4-0.8,0.8
	v0.3H2v2.1h9.6v0.3c0,0.4,0.4,0.8,0.8,0.8h2.6c0.4,0,0.8-0.4,0.8-0.8v-0.3h3.1V9.1h-3.1V8.8z M12.6,11.2V9.1h2.1v2.1H12.6z
	 M9.5,13.8c0-0.4-0.4-0.8-0.8-0.8H6.1c-0.4,0-0.8,0.4-0.8,0.8v0.3H2v2.1h3.3v0.3c0,0.4,0.4,0.8,0.8,0.8h2.6c0.4,0,0.8-0.4,0.8-0.8
	v-0.3h9.3v-2.1H9.5V13.8z M6.3,16.1v-2.1h2.1v2.1H6.3z"/>
	</svg>

	<svg id="icon-cog" viewBox="0 0 21 21">
		<style type="text/css">
			.st0{fill:#333;}
		</style>
		<path class="st0" d="M18,9.2c-1.1-0.3-1.8-1.4-1.5-2.6c0.1-0.2,0.1-0.4,0.2-0.6C17.1,5.5,17,5,16.6,4.7l-0.3-0.3C16,4,15.5,3.9,14.9,4.3 c-1,0.6-2.3,0.3-2.9-0.7c-0.1-0.2-0.2-0.4-0.2-0.6c-0.2-0.6-0.6-0.9-1.1-0.9h-0.5C9.8,2.1,9.4,2.3,9.2,3C8.9,4.1,7.8,4.8,6.7,4.5 C6.5,4.5,6.3,4.4,6.1,4.3C5.5,3.9,5,4,4.7,4.4L4.4,4.7C4,5,3.9,5.5,4.3,6.1c0.6,1,0.3,2.3-0.7,2.9C3.4,9.1,3.2,9.2,3,9.2 c-0.6,0.2-0.9,0.6-0.9,1.1v0.5c0,0.5,0.3,0.9,0.9,1.1c1.1,0.3,1.8,1.4,1.5,2.6c-0.1,0.2-0.1,0.4-0.2,0.6C3.9,15.5,4,16,4.4,16.3 l0.3,0.3C5,17,5.5,17.1,6.1,16.7c1-0.6,2.3-0.3,2.9,0.7c0.1,0.2,0.2,0.4,0.2,0.6c0.2,0.6,0.6,0.9,1.1,0.9h0.5c0.5,0,0.9-0.3,1.1-0.9 c0.3-1.1,1.4-1.8,2.6-1.5c0.2,0.1,0.4,0.1,0.6,0.2c0.6,0.3,1.1,0.2,1.4-0.1l0.3-0.3c0.3-0.3,0.4-0.8,0.1-1.4c-0.6-1-0.3-2.3,0.7-2.9 c0.2-0.1,0.4-0.2,0.6-0.2c0.6-0.2,0.9-0.6,0.9-1.1v-0.5C18.9,9.8,18.7,9.4,18,9.2 M10.5,13.7c-1.7,0-3.2-1.4-3.2-3.2 s1.4-3.2,3.2-3.2s3.2,1.4,3.2,3.2S12.2,13.7,10.5,13.7"/>
	</svg>

	<svg id="icon-pip" viewBox="0 0 21 21">
		<style type="text/css">
			.st0{fill:#333;}
		</style>
		<path class="st0" d="M15,4.6l-6.5,6.5l1.5,1.5L16.4,6l2.4,2.4V2.2h-6.2L15,4.6z"/>
		<path class="st0" d="M14.8,16.9H4.1V6.2h5.3V4.1H3.1C2.5,4.1,2,4.5,2,5.1v12.8C2,18.5,2.5,19,3.1,19h12.8c0.6,0,1.1-0.5,1.1-1.1v-6.4h-2.1V16.9z"/>
	</svg>

	<svg id="icon-expand" viewBox="0 0 21 21">
		<style type="text/css">
			.st0{fill:#333;}
		</style>
		<path class="st0" d="M11.8,4.1h3.6l-4,4l1.4,1.4l4-4v3.6h2v-7h-7V4.1z M8,11.6l-4,4V12H2v7h7v-2H5.4l4-4L8,11.6z"/>
	</svg>

	<svg id="icon-collapse" viewBox="0 0 21 21">
		<style type="text/css">
			.st0{fill:#333;}
		</style>
		<path class="st0" d="M2,14.1h3.6l-4,4L3,19.5l4-4v3.6h2v-7H2V14.1z M17.9,1.7l-4,4V2.1h-2v7h7v-2h-3.6l4-4L17.9,1.7z"/>
	</svg>


	<svg id="icon-radio" viewBox="0 0 21 21">
		<style type="text/css">
			.st0{fill:none;stroke:#333;stroke-width:2.5;opacity:.6;}
		</style>
		<circle class="st0" cx="10.5" cy="10.5" r="6.5"/>
	</svg>

	<svg id="icon-radio-checked" viewBox="0 0 21 21">
		<style type="text/css">
			.st0{fill:none;stroke:#333;stroke-width:2.5;opacity:.6;}
			.st1{fill:#333;}
		</style>
		<circle class="st0" cx="10.5" cy="10.5" r="6.5"/>
		<circle class="st1" cx="10.5" cy="10.5" r="2.5"/>
	</svg>


	<svg id="icon-airplay" viewBox="0 0 21 21">
		<style type="text/css">
			.st0{fill:#333;}
		</style>
		<path class="st0" d="M18.6,1H2.2C1.5,1,1,1.5,1,2.2v11.7c0,0.6,0.5,1.2,1.2,1.2h3.5v-2.3H3.3V3.3h14.1v9.4h-2.3v2.3h3.5c0.6,0,1.2-0.5,1.2-1.2 V2.2C19.8,1.5,19.2,1,18.6,1"/>
		<path class="st0" d="M4.5,20h11.7l-5.9-7L4.5,20z"/>
	</svg>

	<svg id="icon-download" viewBox="0 0 21 21">
		<style type="text/css">
			.st0{fill:#333;}
		</style>
		<path class="st0" d="M10.5,15c0.3,0,0.5-0.1,0.7-0.3L16.9,9l-1.4-1.4l-4,4V3h-2v8.6l-4-4L4.1,9l5.7,5.7C10,14.9,10.2,15,10.5,15 M3.5,17h14v2 h-14L3.5,17z"/>
	</svg>

</svg>